<?xml version="1.0" encoding="UTF-8"?>
<svg id="uuid-07cca3ce-4633-4704-a2d6-e644f1696935" xmlns="http://www.w3.org/2000/svg" version="1.1" viewBox="0 0 150 150">
  <!-- Generator: Adobe Illustrator 30.3.0, SVG Export Plug-In . SVG Version: 2.1.3 Build 182)  -->
  <defs>
    <style>
      .st0 {
        fill: #4682b4;
      }

      .st1 {
        fill: #fff;
      }
    </style>
  </defs>
  <rect class="st0" width="150" height="150" rx="32" ry="32"/>
  <path class="st1" d="M56.02,26.46v97.05c0,.49-.4.89-.89.9-5.07.04-11.01.38-17.81,1.03-.53.05-.99-.36-.99-.89v-.05c0-.38.24-.72.6-.84,4-1.37,6.9-3.96,8.68-7.78,1.87-3.94,2.81-10.37,2.81-19.31v-46.31c0-8.5-1.12-14.44-3.37-17.81-2.17-3.11-4.86-5.12-8.08-6.02-.38-.11-.64-.46-.64-.86v-.11c0-.52.45-.94.97-.89,6.05.49,12,.83,17.85,1.02.48.02.87.41.87.9h0ZM66.98,124.41h-2.85c-.5,0-.9-.4-.9-.9V26.49c0-.5.4-.9.9-.9h22.35c6.55,0,15.12-.35,25.73-1.06.53-.04.97.39.96.92-.04,1.47-.06,3.27-.06,5.39,0,1.5.09,4.31.28,8.44.19,4.56.28,6.94.28,7.12v1.54c0,.5-.4.9-.9.9h-.31c-.44,0-.81-.32-.89-.75-1.87-10.75-7.14-16.12-15.81-16.12h-18.19c-1.84,0-3.51.22-5.01.67-.32.1-.56.38-.61.71-.76,4.87-1.13,11.29-1.13,19.24v18.51c0,.5.4.9.9.9h15.51c7.06,0,12.22-.87,15.47-2.62,3.02-1.6,5.03-4.41,6.03-8.43.1-.4.46-.67.87-.67h.39c.52,0,.93.44.9.96-.4,6.24-.59,10.57-.59,13.01,0,1.56.09,4.22.28,7.97.25,3.56.38,6.13.38,7.69v2.2c0,.5-.4.9-.9.9h-.31c-.47,0-.86-.36-.89-.83-.58-9.32-5.85-13.98-15.8-13.98h-21.32c-.5,0-.9.4-.9.9v20.85c0,13.75,4.09,21.67,12.27,23.75.4.1.67.46.67.87h0c0,.53-.45.94-.97.89-8.31-.7-13.58-1.04-15.81-1.04h0Z"/>
</svg>