<?xml version="1.0" encoding="UTF-8"?><svg id="uuid-07cca3ce-4633-4704-a2d6-e644f1696935" xmlns="http://www.w3.org/2000/svg" viewBox="0 0 450 450"><defs><style>.uuid-b95821cf-aea0-4d0b-8c57-3766457357bf{fill:#fff;}.uuid-7b7bc0fb-05f2-4fff-b1c8-08950ac96dd0{fill:#4682b4;}</style></defs><rect class="uuid-7b7bc0fb-05f2-4fff-b1c8-08950ac96dd0" width="450" height="450" rx="32" ry="32"/><path class="uuid-b95821cf-aea0-4d0b-8c57-3766457357bf" d="M168.0469,79.3877v291.1493c0,1.4829-1.1943,2.6808-2.6771,2.6914-15.21.1088-33.0189,1.1351-53.4267,3.0789-1.582.1507-2.9587-1.0887-2.9587-2.6779v-.1425c0-1.1393.7145-2.1657,1.7922-2.5349,12.0059-4.1127,20.6897-11.8867,26.0515-23.327,5.625-11.8125,8.4375-31.1221,8.4375-57.9375v-138.9375c0-25.4971-3.375-43.3125-10.125-53.4375-6.5111-9.3235-14.5898-15.3465-24.2362-18.069-1.1443-.3229-1.92-1.3869-1.92-2.5759v-.3419c0-1.5729,1.3465-2.8059,2.9141-2.678,18.1566,1.4806,36.0057,2.4988,53.5473,3.0545,1.4524.046,2.601,1.2325,2.601,2.6856ZM200.9531,373.2188h-8.5569c-1.4873,0-2.6931-1.2057-2.6931-2.6931V79.4743c0-1.4873,1.2057-2.6931,2.6931-2.6931h67.0569c19.6411,0,45.3679-1.0584,77.1803-3.1751,1.5836-.1054,2.9227,1.1659,2.8783,2.7524-.1234,4.4094-.1835,9.7988-.1835,16.1727,0,4.5.2812,12.9375.8438,25.3125.5625,13.6895.8438,20.8125.8438,21.375v4.6194c0,1.4873-1.2057,2.6931-2.6931,2.6931h-.9294c-1.3175,0-2.4295-.9578-2.6551-2.2559-5.6043-32.2461-21.4181-48.3691-47.4412-48.3691h-54.5625c-5.5304,0-10.538.674-15.0188,2.0221-.9725.2926-1.6795,1.1336-1.835,2.1371-2.2659,14.6247-3.3962,33.8615-3.3962,57.7157v55.5257c0,1.4873,1.2057,2.6931,2.6931,2.6931h46.5257c21.1855,0,36.6543-2.623,46.4062-7.875,9.068-4.8007,15.101-13.2248,18.0991-25.2771.2949-1.1855,1.3807-2.0041,2.6023-2.0041h1.1769c1.5543,0,2.786,1.3162,2.6872,2.8673-1.1913,18.7069-1.7844,31.7216-1.7844,39.0389,0,4.6895.2812,12.6562.8438,23.9062.748,10.6875,1.125,18.3779,1.125,23.0625v6.5882c0,1.4873-1.2057,2.6931-2.6931,2.6931h-.9288c-1.4121,0-2.5949-1.0932-2.6827-2.5026-1.7399-27.9548-17.5446-41.9349-47.4142-41.9349h-63.9632c-1.4873,0-2.6931,1.2057-2.6931,2.6931v62.5569c0,41.2642,12.267,65.015,36.8009,71.2524,1.1859.3015,2.0116,1.3763,2.0116,2.5999h0c0,1.5755-1.3479,2.815-2.9179,2.6836-24.9386-2.0864-40.7472-3.1296-47.4259-3.1296Z"/></svg>